<svg width="221" height="240" viewBox="0 0 221 240" fill="none" xmlns="http://www.w3.org/2000/svg">
<path d="M208 49H36C55.5671 18.2365 67.1207 3.29712 120.255 0C168.878 0.934957 187.116 14.3751 208 49Z" fill="#93C5FD"/>
<path d="M205.5 45L207 91L221 90C218.049 70.118 213.648 59.6088 205.5 45Z" fill="#93C5FD"/>
<rect x="36" y="49" width="172" height="42" fill="#93C5FD"/>
<rect x="36" y="90" width="185" height="102" fill="#93C5FD"/>
<rect x="118" y="191" width="103" height="49" fill="#93C5FD"/>
<path d="M38.5 46.5V133.5H0L31.5 59C34.8258 51.0926 36.2391 48.2457 38.5 46.5Z" fill="#93C5FD"/>
<rect x="108.406" y="39" width="27" height="127" fill="white"/>
<rect x="170.734" y="57.1514" width="27.7561" height="127.858" transform="rotate(60 170.734 57.1514)" fill="white"/>
<rect x="184.605" y="121.081" width="27.7561" height="127.858" transform="rotate(120 184.605 121.081)" fill="white"/>
</svg>
